# xmcd
#
# Track frame offsets: 
#        150
#        26380
#        51270
#        76217
#        94667
#        119302
#        143960
#        169437
#        200917
#        230627
#        253312
#        276882
#        292385
#
# Disc length: 4187 seconds
#
# Revision: 8
# Processed by: cddbd v1.5.2PL0 Copyright (c) Steve Scherf et al.
# Submitted via: ExactAudioCopy v0.99pb5
#
DISCID=cd10590d
DTITLE=Little Feat - Ain't Had Enough Fun
DYEAR=1995
DGENRE=Blues-Rock, Retro-Rock, Boogie Rock, Southern Rock
TTITLE0=Drivin' Blind
TTITLE1=Blue Jean Blues
TTITLE2=Cadillac Hotel
TTITLE3=Romance Without Finance
TTITLE4=Big Bang Theory
TTITLE5=Cajun Rage
TTITLE6=Heaven's Where You Find It
TTITLE7=Borderline Blues
TTITLE8=All That You Can Stand
TTITLE9=Rock and Roll Everynight
TTITLE10=Shakeytown
TTITLE11=Ain't Had Enough Fun
TTITLE12=That's A Pretty Good Love
EXTD=YEAR: 1995
EXTT0=
EXTT1=
EXTT2=
EXTT3=
EXTT4=
EXTT5=
EXTT6=
EXTT7=
EXTT8=
EXTT9=
EXTT10=
EXTT11=
EXTT12=
PLAYORDER=
